<?xml version="1.0" encoding="utf-8"?>
<!-- Generator: Adobe Illustrator 23.0.5, SVG Export Plug-In . SVG Version: 6.00 Build 0)  -->
<svg version="1.1" id="Слой_1" xmlns="http://www.w3.org/2000/svg" xmlns:xlink="http://www.w3.org/1999/xlink" x="0px" y="0px"
	 viewBox="0 0 16 16" style="enable-background:new 0 0 16 16;" xml:space="preserve">
<style type="text/css">
	.st0{fill-rule:evenodd;clip-rule:evenodd;fill:#FF9900;}
	.st1{fill:#FFFFFF;}
</style>
<path class="st0" d="M8,16c4.4,0,8-3.6,8-8c0-4.4-3.6-8-8-8C3.6,0,0,3.6,0,8C0,12.4,3.6,16,8,16z"/>
<path class="st1" d="M7.3,6.5h1.5V13H7.3V6.5z M8,4.9c-0.3,0-0.5-0.1-0.7-0.3C7.1,4.4,7,4.2,7,4c0-0.3,0.1-0.5,0.3-0.7
	C7.5,3.1,7.7,3,8,3c0.3,0,0.5,0.1,0.7,0.3C8.9,3.4,9,3.7,9,3.9c0,0.3-0.1,0.5-0.3,0.7C8.5,4.8,8.3,4.9,8,4.9z"/>
</svg>
